<?xml version="1.0" standalone="no"?>
<!DOCTYPE svg PUBLIC "-//W3C//DTD SVG 20010904//EN"
 "http://www.w3.org/TR/2001/REC-SVG-20010904/DTD/svg10.dtd">
<svg version="1.0" xmlns="http://www.w3.org/2000/svg"
 width="260.000000pt" height="260.000000pt" viewBox="0 0 260.000000 260.000000"
 preserveAspectRatio="xMidYMid meet">
<metadata>
Created by potrace 1.11, written by Peter Selinger 2001-2013
</metadata>
<g transform="translate(0.000000,260.000000) scale(0.100000,-0.100000)"
fill="#000000" stroke="none">
<path d="M1208 2455 c-2 -1 -31 -6 -65 -9 -82 -9 -241 -55 -328 -96 -116 -55
-235 -139 -330 -235 -216 -216 -330 -481 -340 -785 -3 -96 0 -128 20 -260 11
-73 62 -219 105 -305 117 -228 316 -420 545 -525 504 -233 1093 -83 1430 365
88 116 179 328 210 485 15 76 14 314 -1 400 -74 414 -352 747 -751 900 -29 11
-63 22 -75 24 -13 3 -54 12 -93 21 -59 14 -316 29 -327 20z m44 -734 c15 -1
16 -36 16 -410 l0 -408 -127 0 -126 -1 0 284 0 284 -165 2 -165 3 -1 115 c0
63 1 120 3 125 3 8 435 12 565 6z m320 0 c4 -1 9 -128 10 -283 l3 -283 160 0
160 0 3 -126 3 -126 -283 0 -283 -1 0 404 c0 295 3 407 12 412 8 5 160 7 215
3z"/>
</g>
</svg>
